<?xml version="1.0" encoding="UTF-8"?>
<!DOCTYPE svg PUBLIC "-//W3C//DTD SVG 1.1//EN" "http://www.w3.org/Graphics/SVG/1.1/DTD/svg11.dtd">
<svg xmlns="http://www.w3.org/2000/svg" version="1.1" width="2353px" height="2353px" style="shape-rendering:geometricPrecision; text-rendering:geometricPrecision; image-rendering:optimizeQuality; fill-rule:evenodd; clip-rule:evenodd" xmlns:xlink="http://www.w3.org/1999/xlink">
<g><path style="opacity:0.998" fill="#000000" d="M 1135.5,-0.5 C 1162.5,-0.5 1189.5,-0.5 1216.5,-0.5C 1532.4,14.4079 1800.9,133.741 2022,357.5C 2229.38,576.047 2339.54,836.714 2352.5,1139.5C 2352.5,1163.83 2352.5,1188.17 2352.5,1212.5C 2339.34,1517.39 2227.84,1779.39 2018,1998.5C 1796.26,2220.57 1527.76,2338.57 1212.5,2352.5C 1188.17,2352.5 1163.83,2352.5 1139.5,2352.5C 812.07,2337.83 536.237,2212.17 312,1975.5C 116.719,1761.01 12.5526,1508.01 -0.5,1216.5C -0.5,1189.5 -0.5,1162.5 -0.5,1135.5C 14.6741,818.066 135.007,548.566 360.5,327C 577.543,122.525 835.876,13.3579 1135.5,-0.5 Z M 1154.5,235.5 C 1409.97,233.825 1631.3,318.658 1818.5,490C 1999.92,664.007 2098.76,877.174 2115,1129.5C 2115.52,1144.84 2116.02,1160.17 2116.5,1175.5C 1489.5,1175.5 862.5,1175.5 235.5,1175.5C 240.449,904.524 340.116,675.69 534.5,489C 709.496,328.899 916.163,244.399 1154.5,235.5 Z M 303.5,1462.5 C 397.833,1462.5 492.167,1462.5 586.5,1462.5C 623.36,1579.89 677.86,1687.89 750,1786.5C 867.969,1941.63 1023.14,2038.13 1215.5,2076C 1013.23,2114.07 824.559,2079.41 649.5,1972C 483.22,1864.08 372.386,1714.58 317,1523.5C 311.39,1503.39 306.89,1483.06 303.5,1462.5 Z"/></g>
</svg>
