<?xml version="1.0" encoding="UTF-8"?>
<!DOCTYPE svg PUBLIC "-//W3C//DTD SVG 1.1//EN" "http://www.w3.org/Graphics/SVG/1.1/DTD/svg11.dtd">
<svg xmlns="http://www.w3.org/2000/svg" version="1.1" width="200px" height="200px" style="shape-rendering:geometricPrecision; text-rendering:geometricPrecision; image-rendering:optimizeQuality; fill-rule:evenodd; clip-rule:evenodd" xmlns:xlink="http://www.w3.org/1999/xlink">
<g><path style="opacity:0.949" fill="#fedc4e" d="M 103.5,8.5 C 106.768,9.65662 110.768,10.6566 115.5,11.5C 116.472,12.3991 117.138,13.5657 117.5,15C 117.243,19.6445 115.577,23.4778 112.5,26.5C 109.873,25.9084 107.206,25.5751 104.5,25.5C 89.5235,22.6091 74.8568,24.6091 60.5,31.5C 58.6096,31.7035 57.1096,31.0368 56,29.5C 53.7338,26.1414 51.5672,22.8081 49.5,19.5C 53.0772,16.7487 57.0772,14.582 61.5,13C 66.8878,12.1257 72.0545,10.6257 77,8.5C 85.6936,8.44623 94.5269,8.44623 103.5,8.5 Z"/></g>
<g><path style="opacity:0.919" fill="#e1b441" d="M 136.5,13.5 C 133.332,14.792 130.165,14.792 127,13.5C 126.536,14.0944 126.369,14.7611 126.5,15.5C 122.853,14.0087 119.186,12.6754 115.5,11.5C 110.768,10.6566 106.768,9.65662 103.5,8.5C 114.686,7.6953 125.686,9.36197 136.5,13.5 Z"/></g>
<g><path style="opacity:1" fill="#eeca4d" d="M 115.5,11.5 C 119.186,12.6754 122.853,14.0087 126.5,15.5C 129.88,16.0873 132.88,17.4206 135.5,19.5C 139.728,21.7107 143.728,24.3774 147.5,27.5C 150.086,28.4153 152.086,30.082 153.5,32.5C 156.2,34.8649 158.533,37.5315 160.5,40.5C 156.611,43.3451 152.944,46.3451 149.5,49.5C 148.833,49.1667 148.167,48.8333 147.5,48.5C 142.159,42.8359 136.159,37.8359 129.5,33.5C 124.031,30.7008 118.364,28.3675 112.5,26.5C 115.577,23.4778 117.243,19.6445 117.5,15C 117.138,13.5657 116.472,12.3991 115.5,11.5 Z"/></g>
<g><path style="opacity:1" fill="#d4a042" d="M 136.5,13.5 C 141.245,14.7419 145.579,16.7419 149.5,19.5C 144.833,19.5 140.167,19.5 135.5,19.5C 132.88,17.4206 129.88,16.0873 126.5,15.5C 126.369,14.7611 126.536,14.0944 127,13.5C 130.165,14.792 133.332,14.792 136.5,13.5 Z"/></g>
<g><path style="opacity:0.964" fill="#eec94c" d="M 49.5,19.5 C 51.5672,22.8081 53.7338,26.1414 56,29.5C 57.1096,31.0368 58.6096,31.7035 60.5,31.5C 57.6047,32.7987 54.938,34.4654 52.5,36.5C 45.5473,39.955 40.0473,44.955 36,51.5C 35.3292,52.2524 34.4959,52.5858 33.5,52.5C 29.5,49.5 25.5,46.5 21.5,43.5C 27.639,35.1952 34.9724,28.0285 43.5,22C 45.6406,21.4275 47.6406,20.5942 49.5,19.5 Z"/></g>
<g><path style="opacity:0.979" fill="#e0b342" d="M 135.5,19.5 C 140.167,19.5 144.833,19.5 149.5,19.5C 152.592,21.9296 155.925,23.9296 159.5,25.5C 155.5,26.1667 151.5,26.8333 147.5,27.5C 143.728,24.3774 139.728,21.7107 135.5,19.5 Z"/></g>
<g><path style="opacity:0.865" fill="#d5a344" d="M 159.5,25.5 C 162.167,27.5 164.5,29.8333 166.5,32.5C 162.312,31.8871 157.979,31.8871 153.5,32.5C 152.086,30.082 150.086,28.4153 147.5,27.5C 151.5,26.8333 155.5,26.1667 159.5,25.5 Z"/></g>
<g><path style="opacity:1" fill="#d9aa3f" d="M 104.5,25.5 C 107.206,25.5751 109.873,25.9084 112.5,26.5C 118.364,28.3675 124.031,30.7008 129.5,33.5C 128.448,33.3505 127.448,33.5172 126.5,34C 127.458,35.1475 127.125,36.1475 125.5,37C 123.413,36.7821 121.413,36.9488 119.5,37.5C 120.46,38.8123 120.294,40.1456 119,41.5C 118.517,40.552 118.351,39.552 118.5,38.5C 116.009,38.8395 113.842,39.8395 112,41.5C 110.373,41.3749 108.873,40.8749 107.5,40C 107.833,39.6667 108.167,39.3333 108.5,39C 105.506,35.7654 104.172,36.5987 104.5,41.5C 105.978,41.238 107.311,41.5713 108.5,42.5C 107.471,42.2964 106.471,42.7964 105.5,44C 107.224,44.4482 107.891,45.2815 107.5,46.5C 108.665,45.5089 109.832,44.5089 111,43.5C 113.424,42.8174 115.758,42.4841 118,42.5C 118.5,42.8333 119,43.1667 119.5,43.5C 117.054,44.427 116.221,46.0937 117,48.5C 117.333,48.1667 117.667,47.8333 118,47.5C 119.067,48.1905 120.234,48.6905 121.5,49C 120.01,50.772 118.343,50.9387 116.5,49.5C 114.644,50.2758 113.311,51.6091 112.5,53.5C 112.089,52.7376 111.923,51.7376 112,50.5C 108.624,52.6969 105.624,55.3636 103,58.5C 101.659,55.978 100.826,53.3113 100.5,50.5C 102.359,50.5391 103.692,49.7058 104.5,48C 102.009,47.3741 102.009,46.5407 104.5,45.5C 103.975,44.8076 103.308,44.3076 102.5,44C 103.925,42.2859 103.592,40.9525 101.5,40C 103.929,39.5488 104.096,38.7155 102,37.5C 101.329,38.2524 100.496,38.5858 99.5,38.5C 99.2639,34.3466 99.2639,30.0133 99.5,25.5C 101.167,25.5 102.833,25.5 104.5,25.5 Z"/></g>
<g><path style="opacity:1" fill="#e2b543" d="M 104.5,25.5 C 102.833,25.5 101.167,25.5 99.5,25.5C 99.2639,30.0133 99.2639,34.3466 99.5,38.5C 97.3083,50.2637 95.9749,62.2637 95.5,74.5C 94.7784,74.0825 94.2784,73.4158 94,72.5C 93.6667,73.1667 93.3333,73.8333 93,74.5C 92.0805,74.0698 91.2472,73.7365 90.5,73.5C 91.6709,71.8307 93.0042,70.3307 94.5,69C 94.3699,67.9412 93.8699,67.1079 93,66.5C 91.2328,67.8172 89.8995,69.4839 89,71.5C 87.3646,70.1514 85.8646,70.3181 84.5,72C 85.4491,72.6172 86.2825,72.4506 87,71.5C 89.1056,74.2956 88.6056,74.9623 85.5,73.5C 82.9365,73.737 82.9365,74.237 85.5,75C 84.1667,75.6667 82.8333,75.6667 81.5,75C 82.8333,74.3333 82.8333,73.6667 81.5,73C 79.8659,72.5065 78.1992,72.3398 76.5,72.5C 72.9188,66.5551 69.2521,60.5551 65.5,54.5C 64.2402,53.6184 63.0736,52.6184 62,51.5C 61.1515,48.3022 59.6515,45.4689 57.5,43C 57.8333,42.6667 58.1667,42.3333 58.5,42C 57.552,41.5172 56.552,41.3505 55.5,41.5C 55.7409,38.9664 54.7409,37.2998 52.5,36.5C 54.938,34.4654 57.6047,32.7987 60.5,31.5C 74.8568,24.6091 89.5235,22.6091 104.5,25.5 Z"/></g>
<g><path style="opacity:1" fill="#d7a63b" d="M 129.5,33.5 C 136.159,37.8359 142.159,42.8359 147.5,48.5C 145.837,52.8807 143.171,56.7141 139.5,60C 125.555,71.2652 111.555,82.5985 97.5,94C 96.5,94.5 95.5,95 94.5,95.5C 93.3378,88.441 93.6712,81.441 95.5,74.5C 95.9749,62.2637 97.3083,50.2637 99.5,38.5C 100.496,38.5858 101.329,38.2524 102,37.5C 104.096,38.7155 103.929,39.5488 101.5,40C 103.592,40.9525 103.925,42.2859 102.5,44C 103.308,44.3076 103.975,44.8076 104.5,45.5C 102.009,46.5407 102.009,47.3741 104.5,48C 103.692,49.7058 102.359,50.5391 100.5,50.5C 100.826,53.3113 101.659,55.978 103,58.5C 105.624,55.3636 108.624,52.6969 112,50.5C 111.923,51.7376 112.089,52.7376 112.5,53.5C 113.311,51.6091 114.644,50.2758 116.5,49.5C 118.343,50.9387 120.01,50.772 121.5,49C 120.234,48.6905 119.067,48.1905 118,47.5C 117.667,47.8333 117.333,48.1667 117,48.5C 116.221,46.0937 117.054,44.427 119.5,43.5C 119,43.1667 118.5,42.8333 118,42.5C 115.758,42.4841 113.424,42.8174 111,43.5C 109.832,44.5089 108.665,45.5089 107.5,46.5C 107.891,45.2815 107.224,44.4482 105.5,44C 106.471,42.7964 107.471,42.2964 108.5,42.5C 107.311,41.5713 105.978,41.238 104.5,41.5C 104.172,36.5987 105.506,35.7654 108.5,39C 108.167,39.3333 107.833,39.6667 107.5,40C 108.873,40.8749 110.373,41.3749 112,41.5C 113.842,39.8395 116.009,38.8395 118.5,38.5C 118.351,39.552 118.517,40.552 119,41.5C 120.294,40.1456 120.46,38.8123 119.5,37.5C 121.413,36.9488 123.413,36.7821 125.5,37C 127.125,36.1475 127.458,35.1475 126.5,34C 127.448,33.5172 128.448,33.3505 129.5,33.5 Z"/></g>
<g><path style="opacity:1" fill="#e1b442" d="M 166.5,32.5 C 169.427,33.7573 171.761,35.7573 173.5,38.5C 169.813,38.813 166.146,38.813 162.5,38.5C 161.702,38.9569 161.369,39.6236 161.5,40.5C 161.167,40.5 160.833,40.5 160.5,40.5C 158.533,37.5315 156.2,34.8649 153.5,32.5C 157.979,31.8871 162.312,31.8871 166.5,32.5 Z"/></g>
<g><path style="opacity:0.956" fill="#d39f42" d="M 173.5,38.5 C 175.547,40.5496 177.214,42.883 178.5,45.5C 173.859,44.8734 169.193,44.5401 164.5,44.5C 163.5,43.1667 162.5,41.8333 161.5,40.5C 161.369,39.6236 161.702,38.9569 162.5,38.5C 166.146,38.813 169.813,38.813 173.5,38.5 Z"/></g>
<g><path style="opacity:1" fill="#f6d34d" d="M 160.5,40.5 C 160.833,40.5 161.167,40.5 161.5,40.5C 162.5,41.8333 163.5,43.1667 164.5,44.5C 166.531,46.906 168.198,49.5727 169.5,52.5C 170.11,53.391 170.443,54.391 170.5,55.5C 170.833,56.1667 171.167,56.8333 171.5,57.5C 167.047,59.2263 162.714,61.2263 158.5,63.5C 155.525,58.8502 152.525,54.1835 149.5,49.5C 152.944,46.3451 156.611,43.3451 160.5,40.5 Z"/></g>
<g><path style="opacity:1" fill="#e0b340" d="M 164.5,44.5 C 169.193,44.5401 173.859,44.8734 178.5,45.5C 180.063,46.9448 181.396,48.6115 182.5,50.5C 178.027,51.0506 173.693,51.7173 169.5,52.5C 168.198,49.5727 166.531,46.906 164.5,44.5 Z"/></g>
<g><path style="opacity:1" fill="#d4a142" d="M 182.5,50.5 C 183.063,53.2948 184.396,55.6282 186.5,57.5C 181.031,57.7536 175.697,57.0869 170.5,55.5C 170.443,54.391 170.11,53.391 169.5,52.5C 173.693,51.7173 178.027,51.0506 182.5,50.5 Z"/></g>
<g><path style="opacity:1" fill="#dbac3e" d="M 52.5,36.5 C 54.7409,37.2998 55.7409,38.9664 55.5,41.5C 56.552,41.3505 57.552,41.5172 58.5,42C 58.1667,42.3333 57.8333,42.6667 57.5,43C 59.6515,45.4689 61.1515,48.3022 62,51.5C 63.0736,52.6184 64.2402,53.6184 65.5,54.5C 69.2521,60.5551 72.9188,66.5551 76.5,72.5C 80.9372,79.2104 84.9372,86.2104 88.5,93.5C 88.5654,93.9382 88.3988,94.2716 88,94.5C 79.6667,88.5 71.3333,82.5 63,76.5C 62.6667,76.8333 62.3333,77.1667 62,77.5C 53.2656,69.1241 43.7656,61.7908 33.5,55.5C 33.5,54.5 33.5,53.5 33.5,52.5C 34.4959,52.5858 35.3292,52.2524 36,51.5C 40.0473,44.955 45.5473,39.955 52.5,36.5 Z"/></g>
<g><path style="opacity:1" fill="#e1b543" d="M 170.5,55.5 C 175.697,57.0869 181.031,57.7536 186.5,57.5C 187.123,59.7105 188.123,61.7105 189.5,63.5C 186.612,64.1224 183.612,64.1224 180.5,63.5C 178.36,63.5561 176.694,64.2227 175.5,65.5C 174.691,63.7078 174.191,61.7078 174,59.5C 173.583,58.244 172.75,57.5774 171.5,57.5C 171.167,56.8333 170.833,56.1667 170.5,55.5 Z"/></g>
<g><path style="opacity:1" fill="#dfb240" d="M 147.5,48.5 C 148.167,48.8333 148.833,49.1667 149.5,49.5C 152.525,54.1835 155.525,58.8502 158.5,63.5C 160.426,67.2768 161.759,71.2768 162.5,75.5C 159.753,77.0294 156.753,78.3628 153.5,79.5C 152.856,77.1566 150.856,76.1566 147.5,76.5C 147.671,79.7973 147.005,80.1306 145.5,77.5C 145.167,78.8333 144.833,80.1667 144.5,81.5C 144.924,83.8704 145.091,86.2037 145,88.5C 143.184,87.6705 141.351,86.8372 139.5,86C 138.167,85.3333 138.167,84.6667 139.5,84C 139,83.8333 138.5,83.6667 138,83.5C 134.104,85.6078 129.937,86.9411 125.5,87.5C 125.291,88.086 124.957,88.586 124.5,89C 128.072,91.6258 128.405,94.6258 125.5,98C 126.308,98.3076 126.975,98.8076 127.5,99.5C 126.289,100.72 126.289,101.887 127.5,103C 127,103.5 126.5,104 126,104.5C 123.641,100.423 121.808,100.756 120.5,105.5C 120.667,106.167 120.833,106.833 121,107.5C 122.114,103.701 123.447,103.701 125,107.5C 126.183,106.269 127.349,106.269 128.5,107.5C 125.286,108.044 122.286,109.044 119.5,110.5C 118.033,110.277 116.533,109.944 115,109.5C 116.376,110.861 117.21,112.361 117.5,114C 118.825,113.852 119.992,114.018 121,114.5C 121.667,115.167 121.667,115.833 121,116.5C 120.329,115.748 119.496,115.414 118.5,115.5C 110.293,110.9 102.626,105.567 95.5,99.5C 95.1667,99.8333 94.8333,100.167 94.5,100.5C 97.6221,104.944 100.289,109.61 102.5,114.5C 100.259,112.354 97.5924,110.854 94.5,110C 95.9597,109.189 96.293,108.355 95.5,107.5C 93.6986,109.875 92.0319,112.208 90.5,114.5C 92.5349,109.154 92.8682,103.82 91.5,98.5C 90.3077,96.8869 89.3077,95.2202 88.5,93.5C 84.9372,86.2104 80.9372,79.2104 76.5,72.5C 78.1992,72.3398 79.8659,72.5065 81.5,73C 82.8333,73.6667 82.8333,74.3333 81.5,75C 82.8333,75.6667 84.1667,75.6667 85.5,75C 82.9365,74.237 82.9365,73.737 85.5,73.5C 88.6056,74.9623 89.1056,74.2956 87,71.5C 86.2825,72.4506 85.4491,72.6172 84.5,72C 85.8646,70.3181 87.3646,70.1514 89,71.5C 89.8995,69.4839 91.2328,67.8172 93,66.5C 93.8699,67.1079 94.3699,67.9412 94.5,69C 93.0042,70.3307 91.6709,71.8307 90.5,73.5C 91.2472,73.7365 92.0805,74.0698 93,74.5C 93.3333,73.8333 93.6667,73.1667 94,72.5C 94.2784,73.4158 94.7784,74.0825 95.5,74.5C 93.6712,81.441 93.3378,88.441 94.5,95.5C 95.5,95 96.5,94.5 97.5,94C 111.555,82.5985 125.555,71.2652 139.5,60C 143.171,56.7141 145.837,52.8807 147.5,48.5 Z"/></g>
<g><path style="opacity:0.713" fill="#d5a243" d="M 189.5,63.5 C 189.971,65.5786 190.637,67.5786 191.5,69.5C 187.151,69.9869 182.817,70.3203 178.5,70.5C 177.308,68.8869 176.308,67.2202 175.5,65.5C 176.694,64.2227 178.36,63.5561 180.5,63.5C 183.612,64.1224 186.612,64.1224 189.5,63.5 Z"/></g>
<g><path style="opacity:1" fill="#f6d44f" d="M 21.5,43.5 C 25.5,46.5 29.5,49.5 33.5,52.5C 33.5,53.5 33.5,54.5 33.5,55.5C 31.1644,57.0038 29.331,59.0038 28,61.5C 25.7181,66.8593 23.5514,72.1927 21.5,77.5C 16.414,76.584 11.414,75.2507 6.5,73.5C 9.00701,62.0656 14.007,52.0656 21.5,43.5 Z"/></g>
<g><path style="opacity:1" fill="#e2b644" d="M 191.5,69.5 C 192.369,71.717 192.702,74.0504 192.5,76.5C 188.5,76.5 184.5,76.5 180.5,76.5C 180.5,78.1667 180.5,79.8333 180.5,81.5C 179.598,78.0032 178.931,74.3366 178.5,70.5C 182.817,70.3203 187.151,69.9869 191.5,69.5 Z"/></g>
<g><path style="opacity:0.965" fill="#efca4e" d="M 6.5,73.5 C 11.414,75.2507 16.414,76.584 21.5,77.5C 20.6351,84.3882 19.6351,91.2216 18.5,98C 18.3875,103.837 19.3875,109.337 21.5,114.5C 22.2785,120.964 24.2785,126.964 27.5,132.5C 22.6198,135.019 17.6198,137.353 12.5,139.5C 8.80981,130.941 5.80981,122.108 3.5,113C 3.61581,111.732 3.94915,110.398 4.5,109C 3.10595,108.044 2.43928,106.711 2.5,105C 3.44502,100.915 3.44502,96.9148 2.5,93C 3.08208,86.3504 4.41541,79.8504 6.5,73.5 Z"/></g>
<g><path style="opacity:0.74" fill="#d5a143" d="M 192.5,76.5 C 194.074,78.1016 194.741,80.1016 194.5,82.5C 189.77,82.7166 185.103,82.3833 180.5,81.5C 180.5,79.8333 180.5,78.1667 180.5,76.5C 184.5,76.5 188.5,76.5 192.5,76.5 Z"/></g>
<g><path style="opacity:1" fill="#efcb4f" d="M 171.5,57.5 C 172.75,57.5774 173.583,58.244 174,59.5C 174.191,61.7078 174.691,63.7078 175.5,65.5C 176.308,67.2202 177.308,68.8869 178.5,70.5C 178.931,74.3366 179.598,78.0032 180.5,81.5C 181.109,85.6047 181.775,89.6047 182.5,93.5C 182.5,93.8333 182.5,94.1667 182.5,94.5C 181.373,99.0195 181.373,103.853 182.5,109C 181.139,110.584 180.472,112.418 180.5,114.5C 180.5,114.833 180.5,115.167 180.5,115.5C 179.732,117.715 179.065,120.048 178.5,122.5C 174.336,121.279 170.169,119.946 166,118.5C 165.098,118.743 164.265,119.077 163.5,119.5C 167.812,104.514 167.479,89.8475 162.5,75.5C 161.759,71.2768 160.426,67.2768 158.5,63.5C 162.714,61.2263 167.047,59.2263 171.5,57.5 Z"/></g>
<g><path style="opacity:1" fill="#e2b644" d="M 162.5,75.5 C 167.479,89.8475 167.812,104.514 163.5,119.5C 160.875,127.417 157.208,134.751 152.5,141.5C 152.167,141.5 151.833,141.5 151.5,141.5C 150.602,139.095 149.102,137.095 147,135.5C 146.667,135.833 146.333,136.167 146,136.5C 142.813,132.385 138.647,130.052 133.5,129.5C 133.471,126.344 131.804,124.678 128.5,124.5C 125.393,121.049 122.059,118.049 118.5,115.5C 119.496,115.414 120.329,115.748 121,116.5C 121.667,115.833 121.667,115.167 121,114.5C 119.992,114.018 118.825,113.852 117.5,114C 117.21,112.361 116.376,110.861 115,109.5C 116.533,109.944 118.033,110.277 119.5,110.5C 122.286,109.044 125.286,108.044 128.5,107.5C 127.349,106.269 126.183,106.269 125,107.5C 123.447,103.701 122.114,103.701 121,107.5C 120.833,106.833 120.667,106.167 120.5,105.5C 121.808,100.756 123.641,100.423 126,104.5C 126.5,104 127,103.5 127.5,103C 126.289,101.887 126.289,100.72 127.5,99.5C 126.975,98.8076 126.308,98.3076 125.5,98C 128.405,94.6258 128.072,91.6258 124.5,89C 124.957,88.586 125.291,88.086 125.5,87.5C 129.937,86.9411 134.104,85.6078 138,83.5C 138.5,83.6667 139,83.8333 139.5,84C 138.167,84.6667 138.167,85.3333 139.5,86C 141.351,86.8372 143.184,87.6705 145,88.5C 145.091,86.2037 144.924,83.8704 144.5,81.5C 144.833,80.1667 145.167,78.8333 145.5,77.5C 147.005,80.1306 147.671,79.7973 147.5,76.5C 150.856,76.1566 152.856,77.1566 153.5,79.5C 156.753,78.3628 159.753,77.0294 162.5,75.5 Z"/></g>
<g><path style="opacity:1" fill="#e1b542" d="M 33.5,55.5 C 43.7656,61.7908 53.2656,69.1241 62,77.5C 62.3333,77.1667 62.6667,76.8333 63,76.5C 71.3333,82.5 79.6667,88.5 88,94.5C 88.3988,94.2716 88.5654,93.9382 88.5,93.5C 89.3077,95.2202 90.3077,96.8869 91.5,98.5C 90.4726,100.194 89.1392,101.527 87.5,102.5C 86.1501,99.894 84.6501,99.894 83,102.5C 82.5,101.333 81.6667,100.5 80.5,100C 80.8333,99.6667 81.1667,99.3333 81.5,99C 78.967,98.1477 76.967,98.8144 75.5,101C 78.1667,101.667 78.1667,102.333 75.5,103C 76.624,103.249 77.624,103.749 78.5,104.5C 78.3333,104.833 78.1667,105.167 78,105.5C 74.755,104.685 71.5884,104.352 68.5,104.5C 63.66,106.615 58.66,108.448 53.5,110C 54.7112,110.893 54.7112,111.726 53.5,112.5C 50.2423,111.583 46.909,111.249 43.5,111.5C 43.5489,106.461 42.8823,106.295 41.5,111C 39.765,111.651 38.0983,111.485 36.5,110.5C 34.6675,111.248 33.0009,112.248 31.5,113.5C 30.0442,111.556 29.0442,109.89 28.5,108.5C 26.7115,111.3 24.3782,113.3 21.5,114.5C 19.3875,109.337 18.3875,103.837 18.5,98C 19.6351,91.2216 20.6351,84.3882 21.5,77.5C 23.5514,72.1927 25.7181,66.8593 28,61.5C 29.331,59.0038 31.1644,57.0038 33.5,55.5 Z"/></g>
<g><path style="opacity:0.974" fill="#e1b543" d="M 180.5,81.5 C 185.103,82.3833 189.77,82.7166 194.5,82.5C 194.833,84.5 195.167,86.5 195.5,88.5C 191.143,88.5865 186.81,88.9198 182.5,89.5C 182.5,90.8333 182.5,92.1667 182.5,93.5C 181.775,89.6047 181.109,85.6047 180.5,81.5 Z"/></g>
<g><path style="opacity:1" fill="#d6a446" d="M 195.5,88.5 C 195.758,90.8098 195.758,92.8098 195.5,94.5C 191.317,94.7301 186.984,94.7301 182.5,94.5C 182.5,94.1667 182.5,93.8333 182.5,93.5C 182.5,92.1667 182.5,90.8333 182.5,89.5C 186.81,88.9198 191.143,88.5865 195.5,88.5 Z"/></g>
<g><path style="opacity:1" fill="#dfb140" d="M 87.5,102.5 C 80.5637,107.43 73.897,112.763 67.5,118.5C 66.6143,119.325 66.281,120.325 66.5,121.5C 65.0695,121.421 63.7362,121.754 62.5,122.5C 58.9559,126.207 54.9559,129.374 50.5,132C 45.5664,136.286 40.8997,140.786 36.5,145.5C 33.6859,141.11 30.6859,136.776 27.5,132.5C 24.2785,126.964 22.2785,120.964 21.5,114.5C 24.3782,113.3 26.7115,111.3 28.5,108.5C 29.0442,109.89 30.0442,111.556 31.5,113.5C 33.0009,112.248 34.6675,111.248 36.5,110.5C 38.0983,111.485 39.765,111.651 41.5,111C 42.8823,106.295 43.5489,106.461 43.5,111.5C 46.909,111.249 50.2423,111.583 53.5,112.5C 54.7112,111.726 54.7112,110.893 53.5,110C 58.66,108.448 63.66,106.615 68.5,104.5C 71.5884,104.352 74.755,104.685 78,105.5C 78.1667,105.167 78.3333,104.833 78.5,104.5C 77.624,103.749 76.624,103.249 75.5,103C 78.1667,102.333 78.1667,101.667 75.5,101C 76.967,98.8144 78.967,98.1477 81.5,99C 81.1667,99.3333 80.8333,99.6667 80.5,100C 81.6667,100.5 82.5,101.333 83,102.5C 84.6501,99.894 86.1501,99.894 87.5,102.5 Z"/></g>
<g><path style="opacity:0.559" fill="#d5a243" d="M 195.5,101.5 C 195.802,104.059 195.468,106.393 194.5,108.5C 190.664,107.622 186.664,106.956 182.5,106.5C 182.5,104.833 182.5,103.167 182.5,101.5C 186.833,101.5 191.167,101.5 195.5,101.5 Z"/></g>
<g><path style="opacity:1" fill="#e1b543" d="M 182.5,94.5 C 186.984,94.7301 191.317,94.7301 195.5,94.5C 196.833,96.8333 196.833,99.1667 195.5,101.5C 191.167,101.5 186.833,101.5 182.5,101.5C 182.5,103.167 182.5,104.833 182.5,106.5C 186.664,106.956 190.664,107.622 194.5,108.5C 194.5,110.167 194.5,111.833 194.5,113.5C 189.737,113.226 185.07,113.559 180.5,114.5C 180.472,112.418 181.139,110.584 182.5,109C 181.373,103.853 181.373,99.0195 182.5,94.5 Z"/></g>
<g><path style="opacity:1" fill="#d7a73c" d="M 91.5,98.5 C 92.8682,103.82 92.5349,109.154 90.5,114.5C 90.2865,116.144 90.6198,117.644 91.5,119C 89.2658,122.153 88.9325,125.153 90.5,128C 89.79,133.051 88.79,138.051 87.5,143C 88.0585,143.725 88.3918,144.558 88.5,145.5C 87.2816,153.12 86.4482,160.786 86,168.5C 84.951,170.107 83.451,170.773 81.5,170.5C 78.8333,170.167 76.1667,169.833 73.5,169.5C 59.2413,165.19 46.908,157.524 36.5,146.5C 36.5,146.167 36.5,145.833 36.5,145.5C 40.8997,140.786 45.5664,136.286 50.5,132C 54.9559,129.374 58.9559,126.207 62.5,122.5C 63.7362,121.754 65.0695,121.421 66.5,121.5C 66.281,120.325 66.6143,119.325 67.5,118.5C 73.897,112.763 80.5637,107.43 87.5,102.5C 89.1392,101.527 90.4726,100.194 91.5,98.5 Z"/></g>
<g><path style="opacity:1" fill="#d39f40" d="M 194.5,113.5 C 194.279,116.067 193.612,118.401 192.5,120.5C 188.702,119.517 184.702,119.183 180.5,119.5C 180.5,118.167 180.5,116.833 180.5,115.5C 180.5,115.167 180.5,114.833 180.5,114.5C 185.07,113.559 189.737,113.226 194.5,113.5 Z"/></g>
<g><path style="opacity:0.948" fill="#e0b443" d="M 180.5,115.5 C 180.5,116.833 180.5,118.167 180.5,119.5C 184.702,119.183 188.702,119.517 192.5,120.5C 192.326,122.861 191.993,125.194 191.5,127.5C 186.881,126.686 182.214,126.353 177.5,126.5C 177.433,125.041 177.766,123.708 178.5,122.5C 179.065,120.048 179.732,117.715 180.5,115.5 Z"/></g>
<g><path style="opacity:1" fill="#d5a143" d="M 177.5,126.5 C 182.214,126.353 186.881,126.686 191.5,127.5C 190.486,129.574 189.486,131.574 188.5,133.5C 184.366,132.515 180.032,132.182 175.5,132.5C 176.167,130.5 176.833,128.5 177.5,126.5 Z"/></g>
<g><path style="opacity:1" fill="#f6d44f" d="M 178.5,122.5 C 177.766,123.708 177.433,125.041 177.5,126.5C 176.833,128.5 176.167,130.5 175.5,132.5C 174.123,134.289 173.123,136.289 172.5,138.5C 171.4,139.605 170.733,140.938 170.5,142.5C 169.229,145.968 167.229,148.968 164.5,151.5C 158.964,149.96 154.964,146.627 152.5,141.5C 157.208,134.751 160.875,127.417 163.5,119.5C 164.265,119.077 165.098,118.743 166,118.5C 170.169,119.946 174.336,121.279 178.5,122.5 Z"/></g>
<g><path style="opacity:0.849" fill="#e1b441" d="M 175.5,132.5 C 180.032,132.182 184.366,132.515 188.5,133.5C 188.408,135.848 187.408,137.514 185.5,138.5C 181.167,138.5 176.833,138.5 172.5,138.5C 173.123,136.289 174.123,134.289 175.5,132.5 Z"/></g>
<g><path style="opacity:1" fill="#daaa3d" d="M 118.5,115.5 C 122.059,118.049 125.393,121.049 128.5,124.5C 131.804,124.678 133.471,126.344 133.5,129.5C 138.647,130.052 142.813,132.385 146,136.5C 146.333,136.167 146.667,135.833 147,135.5C 149.102,137.095 150.602,139.095 151.5,141.5C 150.588,143.595 149.421,145.595 148,147.5C 144.085,151.2 139.919,154.533 135.5,157.5C 132.739,157.895 130.239,156.895 128,154.5C 124.204,145.553 119.037,137.553 112.5,130.5C 110.207,125.711 107.707,121.044 105,116.5C 104.292,115.619 103.458,114.953 102.5,114.5C 100.289,109.61 97.6221,104.944 94.5,100.5C 94.8333,100.167 95.1667,99.8333 95.5,99.5C 102.626,105.567 110.293,110.9 118.5,115.5 Z"/></g>
<g><path style="opacity:1" fill="#d5a344" d="M 172.5,138.5 C 176.833,138.5 181.167,138.5 185.5,138.5C 185.275,141.546 183.942,143.879 181.5,145.5C 177.558,145.125 173.891,144.125 170.5,142.5C 170.733,140.938 171.4,139.605 172.5,138.5 Z"/></g>
<g><path style="opacity:1" fill="#f6d44e" d="M 27.5,132.5 C 30.6859,136.776 33.6859,141.11 36.5,145.5C 36.5,145.833 36.5,146.167 36.5,146.5C 32.4185,149.334 28.4185,152.334 24.5,155.5C 19.5396,150.924 15.5396,145.591 12.5,139.5C 17.6198,137.353 22.6198,135.019 27.5,132.5 Z"/></g>
<g><path style="opacity:1" fill="#e1b542" d="M 102.5,114.5 C 103.458,114.953 104.292,115.619 105,116.5C 107.707,121.044 110.207,125.711 112.5,130.5C 119.037,137.553 124.204,145.553 128,154.5C 130.239,156.895 132.739,157.895 135.5,157.5C 133.191,159.987 130.524,161.987 127.5,163.5C 115.813,168.13 103.646,171.13 91,172.5C 87.6758,171.95 84.5091,171.283 81.5,170.5C 83.451,170.773 84.951,170.107 86,168.5C 86.4482,160.786 87.2816,153.12 88.5,145.5C 88.3918,144.558 88.0585,143.725 87.5,143C 88.79,138.051 89.79,133.051 90.5,128C 88.9325,125.153 89.2658,122.153 91.5,119C 90.6198,117.644 90.2865,116.144 90.5,114.5C 92.0319,112.208 93.6986,109.875 95.5,107.5C 96.293,108.355 95.9597,109.189 94.5,110C 97.5924,110.854 100.259,112.354 102.5,114.5 Z"/></g>
<g><path style="opacity:0.978" fill="#efca4d" d="M 36.5,146.5 C 46.908,157.524 59.2413,165.19 73.5,169.5C 71.5891,169.574 70.4224,170.574 70,172.5C 69.47,176.583 68.6367,180.583 67.5,184.5C 63.7077,184.021 60.541,182.354 58,179.5C 57.586,179.957 57.086,180.291 56.5,180.5C 43.5433,175.031 32.8766,166.697 24.5,155.5C 28.4185,152.334 32.4185,149.334 36.5,146.5 Z"/></g>
<g><path style="opacity:0.95" fill="#e2b644" d="M 170.5,142.5 C 173.891,144.125 177.558,145.125 181.5,145.5C 181.071,148.147 179.738,150.147 177.5,151.5C 173.167,150.167 168.833,150.167 164.5,151.5C 167.229,148.968 169.229,145.968 170.5,142.5 Z"/></g>
<g><path style="opacity:1" fill="#eec94c" d="M 151.5,141.5 C 151.833,141.5 152.167,141.5 152.5,141.5C 154.964,146.627 158.964,149.96 164.5,151.5C 162.771,152.236 161.771,153.57 161.5,155.5C 158.548,157.785 155.882,160.452 153.5,163.5C 151.52,164.484 149.853,165.817 148.5,167.5C 144.393,170.729 140.059,173.729 135.5,176.5C 135.167,176.5 134.833,176.5 134.5,176.5C 133.398,171.425 131.064,167.091 127.5,163.5C 130.524,161.987 133.191,159.987 135.5,157.5C 139.919,154.533 144.085,151.2 148,147.5C 149.421,145.595 150.588,143.595 151.5,141.5 Z"/></g>
<g><path style="opacity:1" fill="#d4a043" d="M 177.5,151.5 C 176.557,154.4 174.89,156.733 172.5,158.5C 169.109,156.875 165.442,155.875 161.5,155.5C 161.771,153.57 162.771,152.236 164.5,151.5C 168.833,150.167 173.167,150.167 177.5,151.5 Z"/></g>
<g><path style="opacity:1" fill="#e1b543" d="M 161.5,155.5 C 165.442,155.875 169.109,156.875 172.5,158.5C 170.492,160.838 168.159,162.838 165.5,164.5C 164.828,163.733 163.995,163.066 163,162.5C 162.261,163.574 161.261,164.241 160,164.5C 157.901,163.713 155.734,163.38 153.5,163.5C 155.882,160.452 158.548,157.785 161.5,155.5 Z"/></g>
<g><path style="opacity:0.95" fill="#d6a445" d="M 165.5,164.5 C 163.393,166.727 161.06,168.727 158.5,170.5C 155.695,169.681 152.695,169.181 149.5,169C 148.944,168.617 148.611,168.117 148.5,167.5C 149.853,165.817 151.52,164.484 153.5,163.5C 155.734,163.38 157.901,163.713 160,164.5C 161.261,164.241 162.261,163.574 163,162.5C 163.995,163.066 164.828,163.733 165.5,164.5 Z"/></g>
<g><path style="opacity:0.977" fill="#fedc4e" d="M 127.5,163.5 C 131.064,167.091 133.398,171.425 134.5,176.5C 131.833,177.833 129.167,179.167 126.5,180.5C 119.736,184.021 112.403,185.688 104.5,185.5C 104.5,186.5 104.5,187.5 104.5,188.5C 99.7474,187.667 95.0807,187.667 90.5,188.5C 82.6566,187.732 74.99,186.398 67.5,184.5C 68.6367,180.583 69.47,176.583 70,172.5C 70.4224,170.574 71.5891,169.574 73.5,169.5C 76.1667,169.833 78.8333,170.167 81.5,170.5C 84.5091,171.283 87.6758,171.95 91,172.5C 103.646,171.13 115.813,168.13 127.5,163.5 Z"/></g>
<g><path style="opacity:1" fill="#e1b442" d="M 148.5,167.5 C 148.611,168.117 148.944,168.617 149.5,169C 152.695,169.181 155.695,169.681 158.5,170.5C 158.047,171.458 157.381,172.292 156.5,173C 153.216,174.033 150.216,175.533 147.5,177.5C 143.702,176.517 139.702,176.183 135.5,176.5C 140.059,173.729 144.393,170.729 148.5,167.5 Z"/></g>
<g><path style="opacity:1" fill="#d5a243" d="M 134.5,176.5 C 134.833,176.5 135.167,176.5 135.5,176.5C 139.702,176.183 143.702,176.517 147.5,177.5C 143.07,180.048 138.403,182.048 133.5,183.5C 132,181.507 130.167,181.174 128,182.5C 126.97,182.164 126.47,181.497 126.5,180.5C 129.167,179.167 131.833,177.833 134.5,176.5 Z"/></g>
<g><path style="opacity:0.314" fill="#e2b643" d="M 126.5,180.5 C 126.47,181.497 126.97,182.164 128,182.5C 130.167,181.174 132,181.507 133.5,183.5C 123.67,186.751 114.003,188.418 104.5,188.5C 104.5,187.5 104.5,186.5 104.5,185.5C 112.403,185.688 119.736,184.021 126.5,180.5 Z"/></g>
</svg>
