<?xml version="1.0" encoding="UTF-8"?>
<svg version="1.1" xmlns="http://www.w3.org/2000/svg" width="200" height="200">
<path d="M0 0 C2.32343994 1.6764398 2.32343994 1.6764398 5.53515625 3.33984375 C9.47452017 5.55955215 12.6173388 8.36206269 15.8828125 11.46484375 C16.43775391 11.97724609 16.99269531 12.48964844 17.56445312 13.01757812 C20.73087084 15.98068246 23.70900051 18.952136 26.1953125 22.52734375 C26.1953125 23.51734375 26.1953125 24.50734375 26.1953125 25.52734375 C26.8553125 25.52734375 27.5153125 25.52734375 28.1953125 25.52734375 C42.47372521 50.6816538 47.85587519 75.08191921 40.171875 103.515625 C38.73428374 108.28777946 37.07914229 112.9140539 35.1953125 117.52734375 C34.5353125 117.52734375 33.8753125 117.52734375 33.1953125 117.52734375 C33.0096875 118.31109375 32.8240625 119.09484375 32.6328125 119.90234375 C30.91384171 124.23713965 28.48915646 127.60231878 25.75390625 131.35546875 C24.17728082 133.43162093 24.17728082 133.43162093 23.1953125 135.52734375 C22.5353125 135.52734375 21.8753125 135.52734375 21.1953125 135.52734375 C20.8653125 136.51734375 20.5353125 137.50734375 20.1953125 138.52734375 C18.7578125 140.21484375 18.7578125 140.21484375 17.1953125 141.52734375 C16.5353125 141.52734375 15.8753125 141.52734375 15.1953125 141.52734375 C15.1953125 142.18734375 15.1953125 142.84734375 15.1953125 143.52734375 C13.3671875 145.1484375 13.3671875 145.1484375 10.9453125 146.96484375 C10.15640625 147.56167969 9.3675 148.15851563 8.5546875 148.7734375 C7.38679688 149.64162109 7.38679688 149.64162109 6.1953125 150.52734375 C5.61910156 151.00429687 5.04289063 151.48125 4.44921875 151.97265625 C-10.2879124 162.13795642 -28.09674901 167.09128102 -45.8046875 167.52734375 C-46.45663086 167.54780762 -47.10857422 167.56827148 -47.78027344 167.58935547 C-63.81315845 168.05191605 -80.74324614 167.96420857 -94.8046875 159.52734375 C-96.15532968 159.13984142 -97.51006687 158.7665085 -98.8671875 158.40234375 C-109.71230024 154.94343736 -122.55354845 144.05383999 -128.8046875 134.52734375 C-128.8046875 133.86734375 -128.8046875 133.20734375 -128.8046875 132.52734375 C-129.7946875 132.19734375 -130.7846875 131.86734375 -131.8046875 131.52734375 C-133.65246246 129.23011002 -135.23234666 127.00765606 -136.8046875 124.52734375 C-137.53751953 123.38265625 -137.53751953 123.38265625 -138.28515625 122.21484375 C-144.50536327 111.72524014 -147.93787767 99.66268139 -148.8046875 87.52734375 C-149.1346875 87.19734375 -149.4646875 86.86734375 -149.8046875 86.52734375 C-150.83741315 68.99502464 -148.79719522 48.51610533 -138.8046875 33.52734375 C-138.1446875 33.52734375 -137.4846875 33.52734375 -136.8046875 33.52734375 C-136.7221875 32.82609375 -136.6396875 32.12484375 -136.5546875 31.40234375 C-135.62607271 27.84265371 -133.99850059 25.40823017 -131.8046875 22.52734375 C-130.82242188 21.23183594 -130.82242188 21.23183594 -129.8203125 19.91015625 C-124.80496369 13.52855725 -119.72404938 7.16713104 -111.8046875 4.52734375 C-111.8046875 3.86734375 -111.8046875 3.20734375 -111.8046875 2.52734375 C-108.59766252 0.78694605 -105.38736119 -0.94667763 -102.16796875 -2.6640625 C-100.33945667 -3.64733903 -98.51584597 -4.6411923 -96.72265625 -5.6875 C-70.46359903 -20.44710552 -24.08127039 -17.59785144 0 0 Z " fill="#DEB040" transform="translate(152.8046875,21.47265625)"/>
<path d="M0 0 C2.32343994 1.6764398 2.32343994 1.6764398 5.53515625 3.33984375 C9.47452017 5.55955215 12.6173388 8.36206269 15.8828125 11.46484375 C16.43775391 11.97724609 16.99269531 12.48964844 17.56445312 13.01757812 C20.73087084 15.98068246 23.70900051 18.952136 26.1953125 22.52734375 C26.1953125 23.51734375 26.1953125 24.50734375 26.1953125 25.52734375 C26.8553125 25.52734375 27.5153125 25.52734375 28.1953125 25.52734375 C42.47372521 50.6816538 47.85587519 75.08191921 40.171875 103.515625 C38.73428374 108.28777946 37.07914229 112.9140539 35.1953125 117.52734375 C34.5353125 117.52734375 33.8753125 117.52734375 33.1953125 117.52734375 C33.0096875 118.31109375 32.8240625 119.09484375 32.6328125 119.90234375 C30.91384171 124.23713965 28.48915646 127.60231878 25.75390625 131.35546875 C24.17728082 133.43162093 24.17728082 133.43162093 23.1953125 135.52734375 C22.5353125 135.52734375 21.8753125 135.52734375 21.1953125 135.52734375 C20.8653125 136.51734375 20.5353125 137.50734375 20.1953125 138.52734375 C18.7578125 140.21484375 18.7578125 140.21484375 17.1953125 141.52734375 C16.5353125 141.52734375 15.8753125 141.52734375 15.1953125 141.52734375 C15.1953125 142.18734375 15.1953125 142.84734375 15.1953125 143.52734375 C13.3671875 145.1484375 13.3671875 145.1484375 10.9453125 146.96484375 C10.15640625 147.56167969 9.3675 148.15851563 8.5546875 148.7734375 C7.38679688 149.64162109 7.38679688 149.64162109 6.1953125 150.52734375 C5.61910156 151.00429687 5.04289063 151.48125 4.44921875 151.97265625 C-10.2879124 162.13795642 -28.09674901 167.09128102 -45.8046875 167.52734375 C-46.45663086 167.54780762 -47.10857422 167.56827148 -47.78027344 167.58935547 C-63.81315845 168.05191605 -80.74324614 167.96420857 -94.8046875 159.52734375 C-96.15532968 159.13984142 -97.51006687 158.7665085 -98.8671875 158.40234375 C-109.71230024 154.94343736 -122.55354845 144.05383999 -128.8046875 134.52734375 C-128.8046875 133.86734375 -128.8046875 133.20734375 -128.8046875 132.52734375 C-129.7946875 132.19734375 -130.7846875 131.86734375 -131.8046875 131.52734375 C-133.65246246 129.23011002 -135.23234666 127.00765606 -136.8046875 124.52734375 C-137.53751953 123.38265625 -137.53751953 123.38265625 -138.28515625 122.21484375 C-144.50536327 111.72524014 -147.93787767 99.66268139 -148.8046875 87.52734375 C-149.1346875 87.19734375 -149.4646875 86.86734375 -149.8046875 86.52734375 C-150.83741315 68.99502464 -148.79719522 48.51610533 -138.8046875 33.52734375 C-138.1446875 33.52734375 -137.4846875 33.52734375 -136.8046875 33.52734375 C-136.7221875 32.82609375 -136.6396875 32.12484375 -136.5546875 31.40234375 C-135.62607271 27.84265371 -133.99850059 25.40823017 -131.8046875 22.52734375 C-130.82242188 21.23183594 -130.82242188 21.23183594 -129.8203125 19.91015625 C-124.80496369 13.52855725 -119.72404938 7.16713104 -111.8046875 4.52734375 C-111.8046875 3.86734375 -111.8046875 3.20734375 -111.8046875 2.52734375 C-108.59766252 0.78694605 -105.38736119 -0.94667763 -102.16796875 -2.6640625 C-100.33945667 -3.64733903 -98.51584597 -4.6411923 -96.72265625 -5.6875 C-70.46359903 -20.44710552 -24.08127039 -17.59785144 0 0 Z M-70.1171875 3.77734375 C-71.17486328 3.89980469 -72.23253906 4.02226562 -73.32226562 4.1484375 C-74.85463867 4.34373047 -74.85463867 4.34373047 -76.41796875 4.54296875 C-77.79142456 4.71747559 -77.79142456 4.71747559 -79.19262695 4.89550781 C-82.17091045 5.61593007 -84.24533355 6.86775425 -86.8046875 8.52734375 C-88.43662247 9.20753218 -90.08300625 9.85411826 -91.7421875 10.46484375 C-95.89146095 12.07021741 -99.18617633 13.96790902 -102.8046875 16.52734375 C-103.7946875 16.85734375 -104.7846875 17.18734375 -105.8046875 17.52734375 C-110.12497299 21.27010757 -110.12497299 21.27010757 -111.8046875 26.52734375 C-113.1246875 26.85734375 -114.4446875 27.18734375 -115.8046875 27.52734375 C-116.1346875 28.84734375 -116.4646875 30.16734375 -116.8046875 31.52734375 C-117.4646875 31.52734375 -118.1246875 31.52734375 -118.8046875 31.52734375 C-119.73805562 33.15209566 -120.66903215 34.77825527 -121.58984375 36.41015625 C-122.40759131 37.8352983 -123.2494106 39.2468659 -124.11328125 40.64453125 C-126.91327193 45.31395191 -128.4813764 49.37823161 -129.25 54.77734375 C-129.75132014 57.26276189 -130.46759614 59.3864458 -131.33984375 61.7578125 C-132.97035873 66.53571549 -133.23063056 70.82359776 -133.1171875 75.83984375 C-133.1059082 76.66871094 -133.09462891 77.49757813 -133.08300781 78.3515625 C-132.81238902 90.54365141 -130.44883412 101.64220384 -124.8046875 112.52734375 C-124.1446875 112.52734375 -123.4846875 112.52734375 -122.8046875 112.52734375 C-122.71703125 113.07519531 -122.629375 113.62304688 -122.5390625 114.1875 C-121.57493109 117.25938678 -119.96409578 119.37709306 -118.0546875 121.96484375 C-117.04148437 123.35509766 -117.04148437 123.35509766 -116.0078125 124.7734375 C-104.39833673 139.28528222 -89.06837711 147.78131382 -70.8046875 150.52734375 C-51.93220609 152.34915019 -33.58332285 149.31921428 -17.8046875 138.52734375 C-16.93199219 138.01429688 -16.05929688 137.50125 -15.16015625 136.97265625 C-11.2073482 134.54721848 -8.28267235 131.96129831 -6.8046875 127.52734375 C-5.8146875 127.19734375 -4.8246875 126.86734375 -3.8046875 126.52734375 C-0.46639494 123.91476696 1.27906696 120.22767996 3.1953125 116.52734375 C3.1953125 115.53734375 3.1953125 114.54734375 3.1953125 113.52734375 C3.8553125 113.52734375 4.5153125 113.52734375 5.1953125 113.52734375 C15.77694389 93.05795845 16.80872253 72.39504262 10.1953125 50.52734375 C9.55683069 48.84967775 8.90241928 47.17725957 8.1953125 45.52734375 C7.5353125 45.52734375 6.8753125 45.52734375 6.1953125 45.52734375 C6.07414063 44.95371094 5.95296875 44.38007812 5.828125 43.7890625 C2.18143428 30.75551974 -8.21713169 21.96401906 -18.8046875 14.52734375 C-19.87976563 13.69009766 -19.87976563 13.69009766 -20.9765625 12.8359375 C-23.40799676 11.09548776 -25.96953777 10.43217877 -28.8046875 9.52734375 C-29.7946875 8.86734375 -30.7846875 8.20734375 -31.8046875 7.52734375 C-34.32519088 6.76919007 -36.81427792 6.08941605 -39.3671875 5.46484375 C-40.36588867 5.20477539 -40.36588867 5.20477539 -41.38476562 4.93945312 C-51.21597945 2.49336465 -60.09282795 2.44574043 -70.1171875 3.77734375 Z " fill="#F0CC4E" transform="translate(152.8046875,21.47265625)"/>
<path d="M0 0 C1.23363281 0.00676758 1.23363281 0.00676758 2.4921875 0.01367188 C4.49482396 0.02531511 6.49742227 0.04324444 8.5 0.0625 C8.5 0.7225 8.5 1.3825 8.5 2.0625 C9.17546875 2.11148437 9.8509375 2.16046875 10.546875 2.2109375 C11.43890625 2.28570312 12.3309375 2.36046875 13.25 2.4375 C14.13171875 2.50710938 15.0134375 2.57671875 15.921875 2.6484375 C18.49066382 3.06100055 20.25841015 3.77410957 22.5 5.0625 C22.08846263 10.03343824 21.70399168 14.50758386 19.5 19.0625 C18.04166667 18.91666667 16.58333333 18.77083333 15.125 18.625 C13.90683594 18.50318359 13.90683594 18.50318359 12.6640625 18.37890625 C10.88954703 18.2014547 9.1158568 18.00850099 7.34985352 17.76025391 C0.44710921 16.87740116 -5.93415855 17.39880349 -12.8125 18.3125 C-13.87017578 18.43496094 -14.92785156 18.55742187 -16.01757812 18.68359375 C-17.03916016 18.81378906 -18.06074219 18.94398437 -19.11328125 19.078125 C-20.02891846 19.19446289 -20.94455566 19.31080078 -21.88793945 19.43066406 C-24.86622295 20.15108632 -26.94064605 21.4029105 -29.5 23.0625 C-31.13193497 23.74268843 -32.77831875 24.38927451 -34.4375 25 C-37.52750727 26.1909403 -40.23302682 27.39908522 -42.9375 29.3125 C-45.5 31.0625 -45.5 31.0625 -48.5 31.0625 C-48.83 32.0525 -49.16 33.0425 -49.5 34.0625 C-50.83333333 35.0625 -52.16666667 36.0625 -53.5 37.0625 C-53.83 38.0525 -54.16 39.0425 -54.5 40.0625 C-56.5625 40.75 -56.5625 40.75 -58.5 41.0625 C-58.83 42.3825 -59.16 43.7025 -59.5 45.0625 C-60.16 45.0625 -60.82 45.0625 -61.5 45.0625 C-61.61859375 45.65160156 -61.7371875 46.24070313 -61.859375 46.84765625 C-62.52519898 49.14962086 -63.37847694 50.55122199 -64.75 52.5 C-68.29132397 57.94104295 -70.32102966 63.97992748 -72.5 70.0625 C-71.84 70.3925 -71.18 70.7225 -70.5 71.0625 C-71.49 71.5575 -71.49 71.5575 -72.5 72.0625 C-74.35530247 77.88971762 -74.82180781 83.22616869 -74.75 89.3125 C-74.74323242 90.14587891 -74.73646484 90.97925781 -74.72949219 91.83789062 C-74.56479166 101.72758278 -73.03972045 110.46366172 -69.40234375 119.6875 C-68.59825321 121.80389415 -67.99531871 123.85654451 -67.5 126.0625 C-66.84 126.0625 -66.18 126.0625 -65.5 126.0625 C-65.22027344 126.619375 -64.94054687 127.17625 -64.65234375 127.75 C-61.9220209 132.94727051 -58.89433588 137.17082353 -54.85546875 141.43359375 C-53.5 143.0625 -53.5 143.0625 -53.5 145.0625 C-52.96246094 145.30355469 -52.42492188 145.54460937 -51.87109375 145.79296875 C-48.88463258 147.39198008 -46.29143821 149.36793172 -43.5625 151.375 C-27.97182034 162.44972806 -8.3793771 165.65223481 10.36523438 162.59521484 C20.92179054 160.58373896 20.92179054 160.58373896 30.5 156.0625 C31.49 156.0625 32.48 156.0625 33.5 156.0625 C34.56099328 157.80085057 35.59826483 159.55369804 36.625 161.3125 C37.20507812 162.28703125 37.78515625 163.2615625 38.3828125 164.265625 C39.5 167.0625 39.5 167.0625 38.875 169.32421875 C36.70233399 172.070913 33.69618504 172.91212211 30.5 174.0625 C29.79617187 174.33191406 29.09234375 174.60132813 28.3671875 174.87890625 C23.47562683 176.74708532 19.55074007 178.19302909 14.3125 178.125 C13.41144531 178.11597656 12.51039062 178.10695312 11.58203125 178.09765625 C10.55142578 178.08025391 10.55142578 178.08025391 9.5 178.0625 C9.17 179.0525 8.84 180.0425 8.5 181.0625 C-7.24619747 181.51817774 -23.69561031 181.34513382 -37.5 173.0625 C-38.85064218 172.67499767 -40.20537937 172.30166475 -41.5625 171.9375 C-52.40761274 168.47859361 -65.24886095 157.58899624 -71.5 148.0625 C-71.5 147.4025 -71.5 146.7425 -71.5 146.0625 C-72.49 145.7325 -73.48 145.4025 -74.5 145.0625 C-76.34777496 142.76526627 -77.92765916 140.54281231 -79.5 138.0625 C-80.23283203 136.9178125 -80.23283203 136.9178125 -80.98046875 135.75 C-87.20067577 125.26039639 -90.63319017 113.19783764 -91.5 101.0625 C-91.83 100.7325 -92.16 100.4025 -92.5 100.0625 C-93.53272565 82.53018089 -91.49250772 62.05126158 -81.5 47.0625 C-80.84 47.0625 -80.18 47.0625 -79.5 47.0625 C-79.4175 46.36125 -79.335 45.66 -79.25 44.9375 C-78.32138521 41.37780996 -76.69381309 38.94338642 -74.5 36.0625 C-73.51773438 34.76699219 -73.51773438 34.76699219 -72.515625 33.4453125 C-67.50027619 27.0637135 -62.41936188 20.70228729 -54.5 18.0625 C-54.5 17.4025 -54.5 16.7425 -54.5 16.0625 C-51.29297502 14.3221023 -48.08267369 12.58847862 -44.86328125 10.87109375 C-43.03476917 9.88781722 -41.21115847 8.89396395 -39.41796875 7.84765625 C-27.81418358 1.3254384 -13.06249009 -0.13828369 0 0 Z " fill="#F1CC4E" transform="translate(95.5,7.9375)"/>
<path d="M0 0 C12.47174168 6.52294034 25.37049567 15.50127582 33.5625 27.1875 C33.5625 28.1775 33.5625 29.1675 33.5625 30.1875 C34.2225 30.1875 34.8825 30.1875 35.5625 30.1875 C49.84091271 55.34181005 55.22306269 79.74207546 47.5390625 108.17578125 C46.10147124 112.94793571 44.44632979 117.57421015 42.5625 122.1875 C41.9025 122.1875 41.2425 122.1875 40.5625 122.1875 C40.2840625 123.363125 40.2840625 123.363125 40 124.5625 C38.28102921 128.8972959 35.85634396 132.26247503 33.12109375 136.015625 C31.54446832 138.09177718 31.54446832 138.09177718 30.5625 140.1875 C29.9025 140.1875 29.2425 140.1875 28.5625 140.1875 C28.2325 141.1775 27.9025 142.1675 27.5625 143.1875 C26.125 144.875 26.125 144.875 24.5625 146.1875 C23.9025 146.1875 23.2425 146.1875 22.5625 146.1875 C22.5625 146.8475 22.5625 147.5075 22.5625 148.1875 C20.734375 149.80859375 20.734375 149.80859375 18.3125 151.625 C17.52359375 152.22183594 16.7346875 152.81867188 15.921875 153.43359375 C14.75398438 154.30177734 14.75398438 154.30177734 13.5625 155.1875 C12.69818359 155.90292969 12.69818359 155.90292969 11.81640625 156.6328125 C-3.7314799 167.35735096 -21.84941965 171.69898278 -40.4375 172.1875 C-40.4375 171.1975 -40.4375 170.2075 -40.4375 169.1875 C-39.591875 169.07792969 -38.74625 168.96835938 -37.875 168.85546875 C-24.94601132 167.04834874 -13.34321056 162.45797371 -2.4375 155.1875 C-1.4475 155.1875 -0.4575 155.1875 0.5625 155.1875 C0.665625 154.548125 0.76875 153.90875 0.875 153.25 C1.101875 152.569375 1.32875 151.88875 1.5625 151.1875 C2.5525 150.8575 3.5425 150.5275 4.5625 150.1875 C5.3875 149.3625 6.2125 148.5375 7.0625 147.6875 C9.5625 145.1875 9.5625 145.1875 12.5625 144.1875 C13.78119929 141.68302484 13.78119929 141.68302484 14.5625 139.1875 C15.2225 139.1875 15.8825 139.1875 16.5625 139.1875 C16.8925 138.1975 17.2225 137.2075 17.5625 136.1875 C18.2225 136.1875 18.8825 136.1875 19.5625 136.1875 C19.748125 135.2284375 19.748125 135.2284375 19.9375 134.25 C20.246875 133.2290625 20.246875 133.2290625 20.5625 132.1875 C21.2225 131.8575 21.8825 131.5275 22.5625 131.1875 C35.61033946 110.46351424 39.52302695 84.19777253 34.44921875 60.4375 C33.64189284 57.23188954 33.64189284 57.23188954 32.45703125 54.4375 C31.5625 52.1875 31.5625 52.1875 31.5625 49.1875 C30.9025 49.1875 30.2425 49.1875 29.5625 49.1875 C29.5625 47.2075 29.5625 45.2275 29.5625 43.1875 C28.9025 43.1875 28.2425 43.1875 27.5625 43.1875 C25.5625 40.1875 25.5625 40.1875 25.5625 36.1875 C24.9025 36.1875 24.2425 36.1875 23.5625 36.1875 C23.27375 35.383125 22.985 34.57875 22.6875 33.75 C21.82987432 31.0548532 21.82987432 31.0548532 19.5625 30.1875 C19.129375 29.445 18.69625 28.7025 18.25 27.9375 C16.61914423 25.04039622 16.61914423 25.04039622 13.9375 22.5625 C11.5625 20.1875 11.5625 20.1875 10.5625 17.1875 C9.24602881 16.48812468 7.91227849 15.82020867 6.5625 15.1875 C6.0675 14.1975 6.0675 14.1975 5.5625 13.1875 C3.84782936 12.19826694 2.13062293 11.21285655 0.39453125 10.26171875 C-1.4375 9.1875 -1.4375 9.1875 -4 7.125 C-6.70364822 4.97594629 -9.30088286 3.63516945 -12.4375 2.1875 C-13.1078125 1.8678125 -13.778125 1.548125 -14.46875 1.21875 C-22.64233728 -2.58024127 -30.46740595 -5.03868861 -39.50390625 -5.50390625 C-40.46103516 -5.65666016 -40.46103516 -5.65666016 -41.4375 -5.8125 C-41.7675 -6.4725 -42.0975 -7.1325 -42.4375 -7.8125 C-29.94269638 -11.97743454 -11.3191619 -5.65823759 0 0 Z " fill="#DFB243" transform="translate(145.4375,16.8125)"/>
<path d="M0 0 C1.06099328 1.73835057 2.09826483 3.49119804 3.125 5.25 C3.70507812 6.22453125 4.28515625 7.1990625 4.8828125 8.203125 C6 11 6 11 5.375 13.26171875 C3.20233399 16.008413 0.19618504 16.84962211 -3 18 C-3.70382813 18.26941406 -4.40765625 18.53882813 -5.1328125 18.81640625 C-10.02437317 20.68458532 -13.94925993 22.13052909 -19.1875 22.0625 C-20.08855469 22.05347656 -20.98960938 22.04445312 -21.91796875 22.03515625 C-22.60503906 22.02355469 -23.29210937 22.01195312 -24 22 C-24.495 23.485 -24.495 23.485 -25 25 C-32.95546404 25.23022243 -40.71786227 24.9735159 -48.625 24.125 C-49.39440918 24.04652832 -50.16381836 23.96805664 -50.95654297 23.88720703 C-54.66170806 23.46022384 -57.81011468 23.00844632 -61 21 C-60.71617054 19.24871182 -60.42260471 17.49899997 -60.125 15.75 C-59.96257812 14.77546875 -59.80015625 13.8009375 -59.6328125 12.796875 C-59.04726374 10.20889405 -58.22454518 8.32707163 -57 6 C-56.08903564 6.10175537 -56.08903564 6.10175537 -55.15966797 6.20556641 C-35.17792063 8.33536663 -18.0356847 0 0 0 Z " fill="#FEDC4E" transform="translate(129,164)"/>
<path d="M0 0 C0.82242188 0.00451172 1.64484375 0.00902344 2.4921875 0.01367188 C4.49482396 0.02531511 6.49742227 0.04324444 8.5 0.0625 C8.5 0.7225 8.5 1.3825 8.5 2.0625 C9.51320313 2.13597656 9.51320313 2.13597656 10.546875 2.2109375 C11.43890625 2.28570312 12.3309375 2.36046875 13.25 2.4375 C14.13171875 2.50710938 15.0134375 2.57671875 15.921875 2.6484375 C18.49066382 3.06100055 20.25841015 3.77410957 22.5 5.0625 C22.08846263 10.03343824 21.70399168 14.50758386 19.5 19.0625 C18.04166667 18.91666667 16.58333333 18.77083333 15.125 18.625 C13.90683594 18.50318359 13.90683594 18.50318359 12.6640625 18.37890625 C10.88954703 18.2014547 9.1158568 18.00850099 7.34985352 17.76025391 C0.44710921 16.87740116 -5.93415855 17.39880349 -12.8125 18.3125 C-13.87017578 18.43496094 -14.92785156 18.55742187 -16.01757812 18.68359375 C-17.54995117 18.87888672 -17.54995117 18.87888672 -19.11328125 19.078125 C-20.02891846 19.19446289 -20.94455566 19.31080078 -21.88793945 19.43066406 C-24.85873698 20.14927552 -26.93675477 21.42603338 -29.5 23.0625 C-32.18649553 23.67669008 -34.74041959 23.82863725 -37.5 24.0625 C-38.46125903 22.64781689 -39.41888325 21.2306636 -40.375 19.8125 C-41.17550781 18.62914062 -41.17550781 18.62914062 -41.9921875 17.421875 C-43.31822015 15.34694308 -44.44928175 13.28635028 -45.5 11.0625 C-32.07808667 2.6107764 -15.63270326 -0.16549279 0 0 Z " fill="#FEDC4E" transform="translate(95.5,7.9375)"/>
<path d="M0 0 C0 0.66 0 1.32 0 2 C-6.625 2.125 -6.625 2.125 -10 1 C-10.33 1.66 -10.66 2.32 -11 3 C-11.845625 2.54625 -12.69125 2.0925 -13.5625 1.625 C-18.14125891 -0.39420424 -23.00282579 -0.77954396 -27.93188477 -1.26513672 C-29.62919312 -1.44713648 -31.31664388 -1.71664205 -33 -2 C-33.33 -2.66 -33.66 -3.32 -34 -4 C-23.63029399 -7.45656867 -10.22745284 -2.6621094 0 0 Z " fill="#E2B542" transform="translate(137,13)"/>
<path d="M0 0 C0.78375 0.165 1.5675 0.33 2.375 0.5 C6.93966142 1.12960847 11.40072601 1.08180527 16 1 C16.99 3.31 17.98 5.62 19 8 C14.20699867 9.39151652 9.84864218 8.68662689 5 8 C4.67 8.66 4.34 9.32 4 10 C4 8.02 4 6.04 4 4 C3.34 4 2.68 4 2 4 C1.34 2.68 0.68 1.36 0 0 Z " fill="#E1B543" transform="translate(171,56)"/>
<path d="M0 0 C-0.66 2.31 -1.32 4.62 -2 7 C-6.95 7 -11.9 7 -17 7 C-16.34 5.02 -15.68 3.04 -15 1 C-13.43784452 0.83013455 -11.8752548 0.66426036 -10.3125 0.5 C-9.44238281 0.4071875 -8.57226562 0.314375 -7.67578125 0.21875 C-5.10276661 0.00840136 -2.58015636 -0.03719144 0 0 Z " fill="#E1B442" transform="translate(190,132)"/>
<path d="M0 0 C0.33 0.66 0.66 1.32 1 2 C2.175625 1.690625 2.175625 1.690625 3.375 1.375 C4.674375 1.189375 4.674375 1.189375 6 1 C6.66 1.66 7.32 2.32 8 3 C-1.19180907 6.54771578 -11.12697481 8.24494146 -21 8 C-21 7.01 -21 6.02 -21 5 C-20.154375 4.89042969 -19.30875 4.78085938 -18.4375 4.66796875 C-11.88764739 3.75247799 -6.07727518 2.62156969 0 0 Z " fill="#E3B744" transform="translate(126,181)"/>
<path d="M0 0 C1.97909398 -0.02686553 3.95828971 -0.04633375 5.9375 -0.0625 C7.03964844 -0.07410156 8.14179688 -0.08570312 9.27734375 -0.09765625 C12 0 12 0 13 1 C13 2.98 13 4.96 13 7 C8.38 7.33 3.76 7.66 -1 8 C-0.67 5.36 -0.34 2.72 0 0 Z " fill="#E1B542" transform="translate(182,107)"/>
<path d="M0 0 C4.62 0 9.24 0 14 0 C14.66 1.98 15.32 3.96 16 6 C6.64417178 7.49693252 6.64417178 7.49693252 3 7 C1.11400657 4.61107499 0 3.08148442 0 0 Z " fill="#D5A243" transform="translate(176,64)"/>
<path d="M0 0 C8.79909866 -0.77944772 15.11537979 1.14713149 23 5 C23 5.33 23 5.66 23 6 C20.75215576 6.24942657 18.50152494 6.47383488 16.25 6.6875 C14.99703125 6.81511719 13.7440625 6.94273438 12.453125 7.07421875 C8.67439451 6.99300169 7.69302344 6.49716719 5 4 C3.35202764 3.28837557 1.68834592 2.60968047 0 2 C0 1.34 0 0.68 0 0 Z " fill="#D4A141" transform="translate(127,14)"/>
<path d="M0 0 C1.79244141 0.01740234 1.79244141 0.01740234 3.62109375 0.03515625 C5.41740234 0.04869141 5.41740234 0.04869141 7.25 0.0625 C8.17683594 0.07410156 9.10367188 0.08570313 10.05859375 0.09765625 C9.45675626 2.11811067 8.78553279 4.11876664 8.05859375 6.09765625 C5.33017314 7.46186656 3.44906057 6.97572836 0.43359375 6.66015625 C-0.56929687 6.55832031 -1.5721875 6.45648438 -2.60546875 6.3515625 C-3.37632812 6.26777344 -4.1471875 6.18398437 -4.94140625 6.09765625 C-3.87001683 0.12848661 -3.87001683 0.12848661 0 0 Z " fill="#D5A244" transform="translate(175.94140625,138.90234375)"/>
<path d="M0 0 C13.5470852 -0.92017937 13.5470852 -0.92017937 17.109375 1.3359375 C18.4375 3 18.4375 3 20 6 C17.70890403 6.08075665 15.41700733 6.13907731 13.125 6.1875 C11.21074219 6.23970703 11.21074219 6.23970703 9.2578125 6.29296875 C8.18273437 6.19628906 7.10765625 6.09960938 6 6 C5.34 5.01 4.68 4.02 4 3 C1.94996045 1.80767387 1.94996045 1.80767387 0 1 C0 0.67 0 0.34 0 0 Z " fill="#D6A344" transform="translate(147,27)"/>
<path d="M0 0 C2.08153935 -0.13536022 4.16561206 -0.23215465 6.25 -0.3125 C7.41015625 -0.37050781 8.5703125 -0.42851563 9.765625 -0.48828125 C13 0 13 0 15.421875 2.39453125 C17 5 17 5 17 7 C14.72844502 6.91297874 12.45769257 6.80480478 10.1875 6.6875 C8.92292969 6.62949219 7.65835938 6.57148437 6.35546875 6.51171875 C3 6 3 6 1.05078125 4.64453125 C0 3 0 3 0 0 Z " fill="#D49F42" transform="translate(162,39)"/>
<path d="M0 0 C0.89203125 0.11085937 1.7840625 0.22171875 2.703125 0.3359375 C3.37859375 0.43132812 4.0540625 0.52671875 4.75 0.625 C4.42 2.275 4.09 3.925 3.75 5.625 C3.09 5.625 2.43 5.625 1.75 5.625 C1.42 6.285 1.09 6.945 0.75 7.625 C-0.301875 7.3775 -0.301875 7.3775 -1.375 7.125 C-4.38888194 6.60084662 -7.19713625 6.55400317 -10.25 6.625 C-10 4.25 -10 4.25 -9.25 1.625 C-6.07130038 -0.57119246 -3.75096515 -0.49354805 0 0 Z " fill="#D5A243" transform="translate(172.25,151.375)"/>
<path d="M0 0 C0.99 0.33 1.98 0.66 3 1 C2.01946718 3.58504106 1.02862665 4.97484325 -1.0625 6.8125 C-5.21895615 8.49276951 -8.66841515 7.78327133 -13 7 C-12.125 2.125 -12.125 2.125 -11 1 C-8.41182747 0.92810632 -5.8382749 1.00367557 -3.25 1.0625 C-1.02965595 1.25872256 -1.02965595 1.25872256 0 0 Z " fill="#D6A445" transform="translate(163,163)"/>
<path d="M0 0 C1.79244141 0.01740234 1.79244141 0.01740234 3.62109375 0.03515625 C5.41740234 0.04869141 5.41740234 0.04869141 7.25 0.0625 C8.17683594 0.07410156 9.10367188 0.08570312 10.05859375 0.09765625 C9.72859375 2.40765625 9.39859375 4.71765625 9.05859375 7.09765625 C8.56359375 6.93265625 8.06859375 6.76765625 7.55859375 6.59765625 C4.02415286 5.89076807 0.66168674 6.0376047 -2.94140625 6.09765625 C-3.32359392 4.44150968 -3.65535727 2.77308601 -3.94140625 1.09765625 C-2.94140625 0.09765625 -2.94140625 0.09765625 0 0 Z " fill="#D39E40" transform="translate(184.94140625,113.90234375)"/>
<path d="M0 0 C1.77049689 -0.05410687 3.54146849 -0.09284119 5.3125 -0.125 C6.29863281 -0.14820312 7.28476563 -0.17140625 8.30078125 -0.1953125 C11 0 11 0 14 2 C12 5 12 5 9.9375 5.6875 C5.95069539 6.11162815 2.0049784 6.07852899 -2 6 C-1.34 4.02 -0.68 2.04 0 0 Z " fill="#D4A143" transform="translate(178,127)"/>
<path d="M0 0 C4.29 0 8.58 0 13 0 C13 2.31 13 4.62 13 7 C12.01 6.67 11.02 6.34 10 6 C8.845 6 7.69 6 6.5 6 C3 6 3 6 0 5 C0 3.35 0 1.7 0 0 Z " fill="#D4A143" transform="translate(183,102)"/>
<path d="M0 0 C4.29 0 8.58 0 13 0 C13.33 1.98 13.66 3.96 14 6 C12.22925083 6.02705729 10.45838289 6.04642195 8.6875 6.0625 C7.70136719 6.07410156 6.71523437 6.08570312 5.69921875 6.09765625 C3 6 3 6 0 5 C0 3.35 0 1.7 0 0 Z " fill="#D5A243" transform="translate(181,77)"/>
<path d="M0 0 C2.10304477 -0.1080023 4.20766909 -0.18558987 6.3125 -0.25 C8.07013672 -0.31960937 8.07013672 -0.31960937 9.86328125 -0.390625 C13 0 13 0 14.91796875 1.890625 C16 4 16 4 16 6 C5.81481481 6.40740741 5.81481481 6.40740741 1 4 C0.34375 1.921875 0.34375 1.921875 0 0 Z " fill="#D4A042" transform="translate(170,52)"/>
</svg>
